<svg xmlns="http://www.w3.org/2000/svg" viewBox="0 0 14.13 17.27"><defs><style>.cls-1{fill:#0071bc;}.cls-2{fill:#fff;}.cls-3{font-size:2.14px;fill:#99c6e4;font-family:FuturaPT-Light, Futura PT;letter-spacing:-0.01em;}</style></defs><title>Asset 2</title><g id="Layer_2" data-name="Layer 2"><g id="Layer_1-2" data-name="Layer 1"><path class="cls-1" d="M1.57,7.85s0-.06,0-.08c0-.79,0-1.58,0-2.37A5.2,5.2,0,0,1,2.93,1.89,5.7,5.7,0,0,1,4.73.51,5.13,5.13,0,0,1,6.33,0,6,6,0,0,1,7.75,0,5.08,5.08,0,0,1,10.16,1,5.8,5.8,0,0,1,12,3.12a4.81,4.81,0,0,1,.48,1.6,8.38,8.38,0,0,1,.05.86c0,.73,0,1.46,0,2.2v.07h.37a1.11,1.11,0,0,1,.5.1,1.16,1.16,0,0,1,.69,1s0,0,0,0q0,3.51,0,7a1.16,1.16,0,0,1-.56,1,1.09,1.09,0,0,1-.56.17H1.19a1.15,1.15,0,0,1-1.09-.7A1,1,0,0,1,0,16.13s0,0,0-.06q0-3.51,0-7A1.16,1.16,0,0,1,.59,8a1.07,1.07,0,0,1,.54-.15h.43Zm8.63,0V7.79q0-1.14,0-2.29a3.18,3.18,0,0,0-.11-.86A3.15,3.15,0,0,0,8.76,2.85a2.9,2.9,0,0,0-1.45-.49A3.12,3.12,0,0,0,3.92,5.5q0,1.15,0,2.29v.06Z"/><rect class="cls-2" x="4.22" y="11.11" width="5.69" height="2.57" rx="0.26" ry="0.26"/><text class="cls-3" transform="translate(4.7 13.57)">****</text></g></g></svg>