<svg xmlns="http://www.w3.org/2000/svg" viewBox="0 0 24.15 24.15"><defs><style>.cls-1{fill:#dd4b39;}.cls-2{fill:#fff;}</style></defs><title>Asset 3</title><g id="Layer_2" data-name="Layer 2"><g id="Layer_1-2" data-name="Layer 1"><rect class="cls-1" width="24.15" height="24.15" rx="2.9" ry="2.9"/><path class="cls-2" d="M4,7.64a3.55,3.55,0,0,0,1.49,3.22,4.24,4.24,0,0,0,2.24.6H8a2.89,2.89,0,0,0,.59,2h0c-1.3,0-5.53.27-5.53,3.75s3.88,3.72,4.66,3.72H8a7.18,7.18,0,0,0,3-.65,4,4,0,0,0,2.35-3.91,4.79,4.79,0,0,0-2.08-3.6c-.54-.47-1-.88-1-1.27s.34-.71.77-1.09a3.89,3.89,0,0,0,1.35-3.17c0-1.47-.19-2.45-1.36-3.08A4.22,4.22,0,0,1,11.74,4c.63-.09,1.56-.19,1.56-.7v-.1H8.67S4,3.39,4,7.64Zm7.47,9.07c.09,1.41-1.12,2.46-2.94,2.59s-3.36-.7-3.45-2.11a2.33,2.33,0,0,1,.84-1.87,3.83,3.83,0,0,1,2.29-.93h.31A2.67,2.67,0,0,1,11.46,16.7Zm-1.21-10c.45,1.6-.23,3.27-1.32,3.57a1.43,1.43,0,0,1-.39.05c-1,0-2-1-2.36-2.41a3.47,3.47,0,0,1,0-2.12A1.82,1.82,0,0,1,7.4,4.53a1.43,1.43,0,0,1,.39-.05C9,4.48,9.77,5,10.25,6.67Zm7.83,3.39V7h-2v3h-3v2h3v3h2v-3h3v-2Z"/></g></g></svg>