<svg xmlns="http://www.w3.org/2000/svg" viewBox="0 0 24.24 24.24"><defs><style>.cls-1{fill:#1da1f2;}.cls-2{fill:#fff;}.cls-3{fill:none;}</style></defs><title>Asset 4</title><g id="Layer_2" data-name="Layer 2"><g id="Layer_1-2" data-name="Layer 1"><g id="Dark_Blue" data-name="Dark Blue"><rect class="cls-1" width="24.24" height="24.24" rx="3.17" ry="3.17"/></g><g id="Logo_FIXED" data-name="Logo FIXED"><path class="cls-2" d="M9.31,18.27a8.78,8.78,0,0,0,8.84-8.84c0-.13,0-.27,0-.4a6.32,6.32,0,0,0,1.55-1.61,6.2,6.2,0,0,1-1.78.49,3.12,3.12,0,0,0,1.37-1.72,6.23,6.23,0,0,1-2,.75A3.11,3.11,0,0,0,12,9.78,8.82,8.82,0,0,1,5.6,6.53a3.11,3.11,0,0,0,1,4.15,3.08,3.08,0,0,1-1.41-.39v0a3.11,3.11,0,0,0,2.49,3,3.1,3.1,0,0,1-1.4.05,3.11,3.11,0,0,0,2.9,2.16,6.24,6.24,0,0,1-3.86,1.33,6.33,6.33,0,0,1-.74,0,8.8,8.8,0,0,0,4.76,1.39"/><rect class="cls-3" width="24.24" height="24.24"/></g></g></g></svg>